<?xml version="1.0" standalone="no"?>
<!DOCTYPE svg PUBLIC "-//W3C//DTD SVG 20010904//EN"
 "http://www.w3.org/TR/2001/REC-SVG-20010904/DTD/svg10.dtd">
<svg version="1.0" xmlns="http://www.w3.org/2000/svg"
 width="831.000000pt" height="831.000000pt" viewBox="0 0 831.000000 831.000000"
 preserveAspectRatio="xMidYMid meet">
<metadata>
Created by potrace 1.14, written by Peter Selinger 2001-2017
</metadata>
<g transform="translate(0.000000,831.000000) scale(0.100000,-0.100000)"
fill="#000000" stroke="none">
<path d="M3975 7888 c-27 -5 -62 -10 -77 -11 -16 -1 -28 -5 -28 -8 0 -3 -6 -6
-13 -6 -56 0 -304 -109 -382 -168 -25 -19 -45 -33 -45 -30 0 6 -38 -25 -59
-47 -8 -10 -19 -18 -24 -18 -4 0 -33 -26 -63 -57 -31 -32 -60 -57 -65 -56 -4
2 -5 -5 -2 -14 4 -11 3 -14 -5 -9 -7 4 -12 3 -12 -3 0 -5 -12 -23 -26 -38 -30
-33 -160 -227 -195 -293 -13 -24 -30 -50 -37 -58 -7 -7 -10 -18 -7 -23 4 -5 2
-9 -2 -9 -9 0 -68 -121 -64 -129 2 -2 -1 -7 -6 -10 -8 -5 -47 -78 -124 -230
-15 -30 -25 -59 -22 -64 3 -6 1 -7 -4 -4 -7 4 -20 -16 -34 -48 -12 -30 -26
-55 -31 -55 -4 0 -8 -5 -8 -11 0 -19 -40 -99 -50 -99 -6 0 -9 -4 -8 -8 3 -9
-63 -154 -73 -162 -7 -5 -42 -80 -43 -93 -1 -4 -8 -12 -16 -17 -8 -5 -12 -10
-8 -10 9 0 -52 -122 -67 -132 -5 -4 -6 -8 -1 -8 5 0 3 -7 -4 -15 -7 -8 -9 -15
-4 -15 5 0 2 -5 -6 -10 -8 -5 -15 -13 -15 -18 0 -14 -79 -166 -88 -170 -4 -2
-5 -8 -1 -13 3 -5 0 -9 -5 -9 -6 0 -10 -3 -9 -7 4 -13 -104 -223 -114 -223 -5
0 -7 -4 -4 -8 5 -9 -41 -110 -64 -138 -13 -16 -13 -17 0 -9 8 5 5 -4 -8 -19
-12 -16 -19 -32 -16 -37 3 -5 1 -9 -5 -9 -10 0 -27 -38 -23 -52 1 -5 -3 -8 -8
-8 -6 0 -10 -6 -10 -14 0 -8 -7 -22 -16 -30 -8 -9 -13 -16 -10 -16 3 0 -13
-36 -35 -80 -22 -44 -39 -81 -37 -82 2 -2 -7 -16 -18 -33 -12 -16 -27 -47 -35
-67 -7 -21 -17 -38 -21 -38 -4 0 -8 -5 -8 -12 0 -13 -109 -240 -119 -248 -3
-3 -7 -11 -9 -19 -2 -8 -16 -40 -32 -72 -15 -32 -26 -60 -22 -63 3 -3 0 -6 -6
-6 -10 0 -28 -38 -24 -52 1 -5 -2 -8 -6 -8 -5 0 -19 -26 -32 -57 -13 -32 -28
-61 -33 -64 -5 -3 -8 -9 -8 -13 0 -3 -13 -36 -31 -73 -17 -38 -31 -71 -30 -75
1 -5 -3 -8 -9 -8 -5 0 -7 -5 -4 -10 3 -6 1 -10 -6 -10 -7 0 -9 -3 -6 -7 4 -3
1 -13 -7 -22 -8 -9 -15 -20 -15 -26 0 -5 -14 -37 -30 -70 -16 -33 -37 -79 -47
-102 -10 -24 -22 -43 -28 -43 -5 0 -7 -3 -3 -6 3 -4 -1 -21 -10 -38 -10 -17
-16 -34 -15 -38 1 -5 -3 -8 -8 -8 -5 0 -9 -3 -8 -7 1 -5 -8 -29 -20 -56 -12
-26 -21 -50 -21 -52 0 -3 -7 -13 -16 -22 -9 -8 -14 -21 -11 -28 3 -8 -2 -16
-10 -19 -8 -3 -13 -9 -12 -13 1 -4 -11 -37 -27 -73 -17 -36 -29 -68 -27 -72 1
-5 -2 -8 -7 -8 -9 0 -35 -58 -32 -72 0 -5 -4 -8 -9 -8 -5 0 -9 -3 -8 -7 2 -8
-3 -20 -58 -138 -15 -33 -28 -62 -29 -65 0 -3 -8 -19 -18 -36 -9 -17 -13 -34
-10 -38 4 -3 1 -6 -6 -6 -7 0 -9 -4 -6 -10 3 -6 1 -10 -4 -10 -6 0 -11 -6 -11
-13 0 -8 -14 -41 -30 -75 -17 -34 -30 -64 -30 -67 0 -2 -11 -28 -24 -57 -21
-49 -79 -196 -81 -208 -1 -3 -9 -32 -20 -65 -10 -33 -19 -64 -20 -70 -1 -10
-13 -70 -22 -110 -2 -11 -6 -33 -8 -50 -1 -16 -4 -30 -5 -30 -9 0 -14 -325 -6
-380 3 -16 7 -52 11 -80 4 -27 8 -52 11 -56 2 -4 6 -24 10 -45 3 -22 10 -46
14 -54 4 -8 8 -18 8 -23 1 -23 27 -107 34 -107 4 0 7 -3 6 -7 -6 -22 99 -249
129 -281 7 -7 13 -20 13 -28 0 -8 5 -14 10 -14 6 0 10 -5 10 -11 0 -6 6 -16
12 -23 7 -8 20 -24 28 -36 8 -12 20 -28 25 -34 6 -6 22 -27 37 -46 44 -57 115
-130 127 -130 6 0 11 -7 11 -15 0 -8 4 -15 9 -15 4 0 22 -13 39 -30 18 -16 37
-30 42 -30 6 0 8 -4 5 -10 -3 -5 1 -10 9 -10 9 0 16 -4 16 -10 0 -5 5 -10 10
-10 6 0 20 -9 32 -20 12 -11 34 -26 50 -32 15 -7 28 -16 28 -19 0 -4 13 -12
30 -19 16 -7 30 -15 30 -19 0 -4 15 -13 33 -20 17 -8 34 -15 37 -16 3 -2 15
-6 28 -10 12 -4 22 -11 22 -16 0 -5 3 -8 8 -7 4 1 25 -6 47 -16 52 -22 200
-72 245 -82 19 -4 40 -9 45 -10 18 -4 78 -14 145 -23 67 -9 295 -7 365 3 22 3
60 8 85 11 160 21 411 105 595 200 91 46 256 143 265 155 3 3 21 16 40 28 20
11 49 32 65 46 17 14 36 26 44 26 8 0 11 3 8 6 -5 6 58 58 79 67 4 1 26 20 49
42 24 22 67 60 96 85 29 25 123 116 209 203 86 86 159 157 162 157 4 0 85 -78
181 -172 95 -95 195 -191 222 -213 26 -22 66 -57 89 -78 22 -20 49 -40 58 -43
10 -3 18 -9 18 -14 0 -5 15 -17 32 -29 18 -11 43 -29 56 -41 12 -11 22 -17 22
-13 0 4 4 3 8 -2 8 -12 72 -60 87 -66 6 -2 41 -24 79 -49 38 -25 73 -45 78
-45 5 0 12 -5 16 -10 8 -12 177 -95 192 -95 6 0 10 -5 10 -10 0 -6 3 -9 8 -8
7 3 83 -23 127 -42 32 -15 139 -45 153 -43 6 0 12 -2 12 -6 0 -4 14 -8 31 -9
18 -1 37 -5 42 -9 6 -4 20 -7 31 -8 12 -1 39 -5 61 -8 124 -21 184 -25 315
-22 80 2 154 6 165 8 11 2 43 8 70 13 64 10 69 11 75 14 3 1 12 3 20 5 15 4
115 32 135 39 6 1 23 8 38 14 15 7 39 15 52 18 14 3 25 10 25 15 0 5 8 9 18 9
10 0 28 7 40 16 12 8 22 12 22 8 0 -4 8 -1 18 7 9 8 31 21 47 29 36 17 194
121 232 152 14 13 39 34 54 48 15 14 43 40 63 58 20 18 36 37 36 43 0 6 5 7
10 4 6 -3 10 -2 10 3 0 6 16 27 35 48 19 22 47 57 62 79 16 22 33 46 40 53 7
7 24 35 39 62 15 28 31 50 36 50 5 0 7 4 3 9 -3 5 -1 12 5 16 6 4 8 11 5 16
-4 5 -1 9 5 9 6 0 15 11 20 25 5 14 18 44 29 68 38 84 49 115 43 121 -3 3 1 6
8 6 7 0 11 3 7 6 -3 4 0 22 8 40 8 19 11 34 8 34 -3 0 0 7 7 15 7 8 10 15 6
15 -3 0 -1 11 4 25 8 20 31 135 45 225 16 97 24 280 14 280 -4 0 -5 9 -2 20 3
11 0 56 -6 99 -12 82 -13 86 -32 161 -6 25 -13 56 -15 69 -3 13 -11 39 -19 57
-8 19 -12 34 -10 34 3 0 -4 16 -15 35 -11 20 -20 39 -20 44 0 5 -8 26 -17 47
-9 22 -17 41 -18 44 -1 3 -7 18 -13 33 -7 16 -12 33 -12 38 0 5 -4 9 -8 9 -5
0 -9 6 -9 13 0 6 -14 41 -30 77 -58 126 -73 160 -71 164 2 2 -6 13 -16 25 -11
12 -16 21 -13 21 4 0 -5 21 -18 46 -14 26 -22 50 -19 55 3 5 1 9 -4 9 -9 0
-12 6 -57 105 -15 33 -38 81 -51 107 -13 26 -24 54 -24 62 0 8 -3 16 -7 18 -8
3 -69 132 -117 243 -11 28 -24 52 -28 53 -5 2 -8 8 -8 13 0 11 -41 102 -49
109 -3 3 -7 11 -8 17 -2 7 -23 53 -47 102 -24 49 -42 92 -38 95 3 3 0 6 -7 6
-7 0 -9 5 -6 10 3 6 1 10 -5 10 -6 0 -8 5 -5 10 3 6 1 10 -4 10 -6 0 -11 4
-11 10 0 5 -27 66 -60 135 -33 69 -60 130 -60 135 0 6 -4 10 -10 10 -5 0 -9 3
-8 8 2 4 -17 48 -42 97 -24 50 -44 92 -45 95 -1 13 -61 125 -67 128 -5 2 -8
12 -8 23 0 10 -5 19 -12 19 -6 0 -9 3 -6 6 4 3 -14 44 -38 91 -24 47 -44 92
-44 100 0 7 -4 13 -10 13 -5 0 -10 9 -10 20 0 11 -3 20 -7 20 -5 0 -19 27 -33
60 -14 33 -28 60 -32 60 -5 0 -8 6 -8 13 0 18 -24 67 -32 67 -5 0 -8 7 -8 16
0 9 -9 28 -19 42 -10 15 -18 29 -18 32 1 6 -85 183 -93 190 -3 3 -16 30 -30
60 -14 30 -28 57 -32 58 -5 2 -8 9 -8 16 0 7 -22 56 -50 108 -27 53 -46 98
-43 102 4 3 2 6 -3 6 -6 0 -24 28 -40 63 -16 34 -31 64 -34 67 -3 3 -23 41
-44 85 -22 44 -45 83 -50 87 -6 4 -8 8 -4 8 7 0 -95 204 -113 226 -6 7 -12 21
-14 33 -2 12 -11 28 -19 37 -9 8 -16 24 -16 34 0 10 -7 20 -15 24 -8 3 -14 9
-13 13 2 9 -20 57 -41 92 -9 13 -16 30 -17 38 -1 8 -7 20 -13 27 -6 7 -51 91
-100 187 -49 96 -103 197 -120 224 -17 28 -36 61 -43 75 -7 14 -17 28 -23 32
-5 4 -10 12 -10 18 0 6 -7 15 -15 20 -8 5 -11 10 -5 10 5 0 -1 7 -13 16 -12 8
-22 19 -22 25 0 9 -33 49 -77 95 -13 13 -23 26 -23 29 0 9 -113 115 -123 115
-4 0 -5 5 -2 10 3 6 0 10 -7 10 -7 0 -29 15 -49 33 -20 18 -55 41 -77 52 -23
11 -42 26 -42 33 0 6 -3 11 -7 10 -5 -1 -39 13 -78 31 -38 18 -74 34 -80 35
-5 1 -15 5 -21 8 -93 58 -439 96 -609 66z m320 -492 c129 -27 215 -62 306
-123 65 -44 149 -119 149 -133 0 -6 4 -10 9 -10 5 0 26 -24 47 -52 20 -29 44
-59 53 -65 8 -7 12 -13 8 -13 -4 0 12 -30 34 -67 22 -36 45 -77 50 -90 4 -12
13 -23 19 -23 6 0 8 -5 4 -11 -3 -6 -2 -14 3 -18 5 -3 19 -28 32 -56 13 -27
30 -58 39 -67 8 -10 12 -18 9 -18 -4 0 3 -17 15 -37 11 -21 34 -65 50 -98 17
-33 34 -67 39 -75 4 -8 28 -53 51 -100 24 -47 46 -86 51 -88 4 -2 7 -9 7 -15
0 -7 26 -63 59 -125 32 -61 56 -112 53 -112 -2 0 1 -7 8 -15 17 -20 84 -158
82 -167 -1 -5 2 -8 7 -8 8 0 22 -35 18 -44 -1 -2 5 -12 14 -22 24 -27 49 -80
42 -88 -4 -3 -1 -6 6 -6 7 0 10 -4 6 -9 -3 -5 -1 -12 5 -16 5 -3 17 -23 27
-43 9 -20 22 -40 27 -44 6 -4 8 -8 4 -8 -4 0 5 -24 19 -52 15 -29 25 -55 24
-57 -2 -2 1 -7 6 -10 4 -3 19 -28 33 -56 14 -27 27 -52 30 -55 3 -3 6 -10 7
-16 2 -11 194 -409 214 -444 18 -31 52 -106 55 -118 1 -8 10 -22 18 -31 9 -10
16 -21 16 -24 0 -7 89 -194 176 -369 18 -38 30 -68 26 -68 -4 0 -2 -4 4 -8 9
-6 47 -78 49 -92 2 -14 61 -126 70 -132 5 -4 7 -8 2 -8 -4 0 5 -24 19 -52 14
-29 39 -78 54 -109 16 -32 26 -60 23 -63 -4 -3 -1 -6 5 -6 7 0 12 -5 12 -11 0
-5 23 -58 51 -117 124 -259 181 -381 183 -392 1 -3 13 -28 28 -57 14 -28 24
-54 21 -57 -4 -3 -1 -6 5 -6 7 0 11 -3 10 -7 -2 -8 23 -64 32 -73 3 -3 6 -11
8 -19 2 -8 12 -32 23 -54 10 -23 19 -46 19 -53 0 -6 7 -17 15 -24 9 -7 14 -19
11 -27 -3 -7 -2 -13 2 -13 4 0 13 -15 21 -32 7 -18 25 -58 39 -88 14 -30 26
-57 27 -60 1 -3 12 -27 24 -55 33 -72 48 -107 56 -135 4 -14 11 -29 15 -35 9
-12 59 -209 65 -256 6 -42 17 -162 17 -174 -1 -67 -13 -188 -23 -233 -7 -31
-13 -61 -14 -67 -1 -5 -4 -17 -7 -25 -15 -39 -32 -105 -28 -106 3 -1 -2 -10
-11 -20 -9 -11 -19 -31 -23 -46 -3 -15 -12 -33 -19 -40 -6 -7 -13 -18 -14 -23
-3 -16 -33 -71 -33 -60 0 5 -8 -5 -18 -23 -27 -51 -125 -171 -145 -177 -9 -4
-15 -11 -12 -16 4 -5 3 -9 -2 -9 -4 0 -31 -20 -58 -45 -28 -25 -58 -47 -67
-51 -10 -3 -18 -10 -18 -15 0 -5 -7 -9 -15 -9 -8 0 -15 -4 -15 -8 0 -4 -12
-13 -27 -20 -16 -6 -48 -23 -73 -37 -25 -14 -47 -26 -50 -27 -3 0 -16 -5 -30
-10 -111 -43 -120 -45 -120 -35 0 8 -3 8 -8 -1 -7 -10 -120 -37 -172 -41 -125
-8 -319 2 -351 20 -12 6 -19 6 -19 0 0 -6 -15 -4 -35 5 -19 8 -38 13 -42 12
-5 0 -15 1 -23 4 -8 3 -35 12 -60 19 -25 7 -70 23 -100 36 -30 13 -57 24 -60
24 -26 1 -361 201 -368 221 -2 4 -9 8 -16 8 -6 0 -19 8 -27 18 -9 9 -29 26
-45 37 -35 25 -99 80 -139 120 -16 16 -32 30 -35 29 -11 -1 -230 215 -230 227
0 5 -8 9 -17 9 -9 0 -14 2 -12 5 3 2 -21 32 -53 65 -32 34 -58 65 -58 71 0 5
9 17 20 26 11 10 20 21 20 25 0 4 14 21 30 38 17 17 30 34 30 38 0 4 14 21 30
39 17 18 30 34 30 37 0 5 38 57 118 161 4 6 32 47 61 92 30 46 59 83 64 83 6
0 7 3 4 6 -7 7 29 63 48 76 5 4 6 8 1 8 -5 0 -2 8 6 18 9 9 25 33 35 52 74
132 88 156 97 162 6 4 8 8 3 8 -4 0 3 17 16 38 29 47 71 133 73 150 2 8 10 22
18 31 9 10 16 24 16 32 0 8 4 19 9 24 5 6 18 37 30 69 12 33 25 64 29 70 3 6
8 20 9 30 2 11 7 24 12 30 5 6 12 26 16 43 3 18 11 33 17 33 6 0 9 2 6 5 -3 3
6 45 19 93 13 48 26 96 28 107 3 11 8 34 11 50 4 17 8 39 10 50 1 11 3 21 4
23 2 1 4 11 5 22 1 11 4 21 5 23 4 4 13 111 14 164 1 29 3 53 6 53 10 0 -2
265 -15 320 -3 14 -8 39 -11 55 -9 45 -11 51 -31 103 -4 9 -8 22 -8 27 -6 35
-107 245 -116 239 -4 -2 -9 7 -13 19 -3 13 -13 33 -23 44 -10 11 -29 35 -43
54 -37 48 -158 169 -171 169 -5 0 -7 5 -4 10 3 6 1 10 -5 10 -12 0 -68 38 -85
57 -5 6 -34 23 -63 38 -29 15 -55 31 -58 36 -3 5 -14 9 -25 9 -10 0 -19 5 -19
10 0 6 -6 10 -13 10 -7 0 -31 9 -53 19 -21 11 -42 17 -46 14 -5 -2 -8 1 -8 6
0 6 -3 10 -7 9 -10 -2 -64 13 -78 20 -5 4 -16 7 -25 8 -54 8 -81 13 -89 18
-28 17 -318 26 -436 13 -66 -7 -110 -14 -110 -17 0 -1 -11 -3 -25 -6 -39 -7
-214 -66 -227 -77 -7 -5 -13 -6 -13 -1 0 4 -7 -1 -16 -12 -8 -10 -13 -12 -9
-4 6 13 5 13 -7 0 -7 -8 -19 -16 -26 -18 -25 -5 -122 -64 -122 -75 0 -6 -3 -8
-6 -4 -6 5 -15 0 -49 -30 -7 -7 -16 -13 -18 -13 -21 0 -234 -216 -229 -232 1
-5 -2 -8 -8 -8 -5 0 -17 -16 -26 -35 -9 -19 -21 -35 -26 -35 -5 0 -6 -4 -3
-10 3 -5 1 -10 -4 -10 -6 0 -11 -4 -11 -10 0 -5 -13 -31 -28 -57 -16 -26 -31
-57 -34 -68 -16 -50 -52 -141 -62 -154 -9 -12 -8 -13 3 -6 11 6 12 5 5 -6 -4
-8 -9 -18 -10 -24 -1 -5 -5 -23 -9 -40 -8 -37 -14 -70 -21 -115 -8 -51 -12
-343 -5 -355 3 -5 6 -21 7 -36 1 -31 24 -159 31 -179 3 -8 7 -22 9 -31 5 -25
31 -120 47 -171 8 -26 12 -49 9 -52 -3 -4 -1 -6 5 -6 5 0 10 -6 11 -12 1 -19
7 -39 21 -73 7 -16 13 -32 13 -35 2 -10 56 -137 84 -195 15 -33 27 -63 26 -67
-1 -5 3 -8 10 -8 6 0 8 -3 5 -6 -4 -4 3 -20 14 -35 11 -16 17 -29 14 -29 -3 0
3 -13 15 -30 12 -16 18 -30 13 -30 -4 0 -3 -4 2 -8 6 -4 15 -16 21 -27 47 -88
60 -111 65 -115 3 -3 8 -12 12 -20 4 -8 17 -31 29 -51 13 -20 38 -63 57 -95
19 -33 37 -61 41 -64 3 -3 23 -33 45 -67 22 -35 43 -63 48 -63 4 0 7 -4 7 -10
0 -18 107 -159 115 -152 5 4 5 2 2 -4 -4 -6 4 -23 18 -38 13 -14 22 -26 19
-26 -3 0 1 -6 8 -14 31 -32 57 -66 51 -66 -3 0 5 -10 19 -23 14 -12 28 -30 31
-39 4 -10 11 -18 17 -18 21 0 8 -27 -35 -75 -63 -69 -245 -255 -245 -250 0 2
-24 -19 -52 -46 -29 -28 -65 -61 -79 -74 -14 -14 -29 -25 -33 -25 -4 0 -17
-11 -30 -25 -13 -14 -26 -25 -29 -25 -3 0 -18 -11 -32 -26 -14 -14 -30 -22
-35 -19 -6 3 -10 -1 -10 -10 0 -9 -4 -13 -10 -10 -5 3 -10 2 -10 -3 0 -5 -30
-29 -67 -53 -38 -24 -71 -48 -75 -54 -4 -5 -8 -7 -8 -3 0 4 -17 -4 -37 -18
-77 -52 -321 -164 -393 -179 -8 -2 -15 -4 -15 -5 0 -1 -7 -3 -15 -5 -8 -2 -26
-7 -40 -10 -14 -3 -38 -8 -55 -10 -16 -2 -41 -7 -55 -11 -38 -11 -332 -13
-359 -3 -13 5 -45 10 -71 12 -26 1 -45 6 -42 11 3 5 -2 7 -11 3 -9 -3 -19 -2
-22 4 -4 5 -11 7 -16 4 -5 -4 -9 -1 -9 4 0 6 -3 10 -7 9 -24 -5 -206 70 -223
93 -3 3 -15 9 -28 13 -12 4 -22 12 -22 17 0 5 -5 9 -11 9 -37 0 -299 262 -299
299 0 6 -4 11 -8 11 -5 0 -17 17 -29 38 -11 20 -30 54 -41 75 -12 20 -19 37
-15 37 3 0 -2 9 -11 19 -10 11 -15 25 -11 30 3 6 1 11 -4 11 -6 0 -11 11 -11
25 0 14 -5 25 -11 25 -6 0 -9 6 -6 14 3 7 0 19 -6 25 -6 6 -8 11 -4 11 4 0 3
8 -2 19 -6 10 -11 35 -13 55 -1 20 -5 36 -8 36 -14 0 -18 292 -5 360 4 19 8
46 9 60 1 14 5 31 10 38 4 7 5 16 2 19 -3 3 -1 12 5 20 6 7 9 13 6 13 -3 0 1
17 10 38 8 20 15 39 15 42 1 6 1 9 19 65 7 22 11 42 10 44 -2 2 2 7 8 11 6 3
13 15 15 26 3 10 23 60 46 109 22 50 45 99 49 110 10 22 51 110 107 230 21 44
39 82 39 85 1 3 17 39 37 80 19 41 54 116 78 165 23 50 55 118 71 152 16 34
29 66 29 72 0 5 8 15 18 20 9 6 14 11 10 11 -4 0 11 39 33 88 45 97 56 123 57
135 0 5 9 15 19 23 10 7 15 14 11 14 -4 0 1 17 11 38 39 76 121 253 121 261 0
5 7 14 15 21 8 7 12 16 9 21 -3 5 0 9 5 9 6 0 11 9 11 19 0 11 7 26 15 35 8 8
15 19 15 23 0 5 11 33 25 61 14 29 25 56 25 62 0 5 5 10 10 10 6 0 10 5 10 10
0 6 25 61 55 124 30 62 55 118 55 123 0 6 7 16 15 23 8 7 15 21 15 31 0 11 5
19 10 19 6 0 10 4 10 9 0 15 83 186 92 189 4 2 8 9 8 16 0 16 51 119 63 127 5
3 8 9 7 13 -4 12 22 66 31 66 5 0 8 3 7 8 -3 11 62 146 75 154 7 4 9 8 5 8 -4
0 44 101 107 225 63 124 111 225 107 225 -4 0 0 5 8 10 8 5 15 13 16 17 0 4
19 44 41 88 22 44 62 123 88 175 26 52 51 98 57 101 5 3 9 8 8 10 -2 4 62 141
70 149 3 3 29 52 58 110 69 137 249 482 275 525 35 59 113 171 124 178 7 4 13
12 13 16 0 9 78 89 103 106 8 6 42 29 75 53 34 23 68 42 76 42 8 0 16 5 18 10
2 6 12 12 23 14 11 3 37 12 58 20 20 9 37 14 37 11 0 -3 13 1 28 9 20 10 33
11 46 4 13 -7 17 -7 12 0 -4 7 6 12 26 14 40 4 205 0 233 -6z m20 -2729 c17
-3 32 -6 35 -8 3 -1 10 -3 15 -4 6 -2 13 -4 18 -5 8 -3 7 -3 52 -15 40 -11
139 -57 143 -67 2 -4 10 -8 18 -8 8 0 14 -4 14 -10 0 -5 7 -10 15 -10 8 0 15
-4 15 -10 0 -5 5 -10 11 -10 6 0 28 -18 49 -40 21 -22 43 -40 49 -40 7 0 10
-4 7 -9 -4 -5 -3 -11 1 -13 11 -4 64 -75 64 -85 0 -5 6 -15 14 -23 18 -21 47
-80 39 -80 -4 0 1 -9 11 -20 10 -11 15 -20 11 -20 -4 0 -2 -8 3 -18 6 -11 12
-30 15 -43 3 -13 7 -35 11 -49 3 -14 8 -54 11 -90 4 -36 8 -68 11 -72 2 -4 -1
-16 -7 -27 -6 -12 -6 -22 -1 -26 7 -4 8 -60 1 -60 0 0 -3 -28 -5 -63 -2 -34
-6 -70 -9 -80 -3 -9 -8 -33 -11 -52 -9 -52 -24 -110 -41 -154 -8 -21 -12 -41
-10 -44 3 -3 2 -10 -3 -16 -4 -6 -21 -47 -36 -91 -15 -44 -32 -83 -37 -86 -5
-3 -10 -9 -9 -12 1 -15 -24 -73 -65 -153 -24 -48 -44 -93 -44 -100 0 -7 -6
-17 -14 -21 -7 -4 -21 -26 -32 -48 -10 -22 -20 -42 -23 -45 -4 -3 -17 -25 -30
-50 -13 -25 -31 -51 -40 -58 -9 -7 -15 -16 -13 -20 2 -4 -18 -38 -43 -76 -25
-37 -45 -72 -45 -77 0 -5 -5 -9 -11 -9 -5 0 -7 -4 -4 -10 3 -5 2 -10 -3 -10
-4 0 -28 -30 -52 -67 -25 -38 -50 -72 -57 -76 -7 -4 -13 -14 -13 -22 0 -7 -3
-15 -7 -17 -5 -1 -28 -30 -53 -63 -24 -33 -52 -69 -62 -80 -19 -19 -19 -19
-48 12 -17 18 -30 35 -30 38 0 6 -13 23 -42 56 -10 10 -18 22 -18 27 0 4 -13
21 -30 38 -16 18 -26 35 -23 38 4 3 2 6 -3 6 -5 0 -20 18 -34 40 -14 22 -28
40 -32 40 -5 0 -8 5 -8 11 0 6 -20 39 -45 73 -25 35 -45 69 -45 75 0 6 -4 11
-9 11 -5 0 -13 10 -17 23 -4 12 -10 24 -14 27 -10 7 -120 196 -120 207 0 4 -9
19 -20 33 -11 14 -20 33 -20 43 0 9 -3 17 -8 17 -4 0 -18 27 -31 60 -13 33
-28 60 -33 60 -5 0 -6 5 -3 10 3 6 1 10 -6 10 -7 0 -10 3 -7 6 4 3 -7 38 -23
77 -31 74 -86 234 -93 271 -3 12 -12 55 -20 96 -9 41 -18 95 -20 120 -2 25 -5
45 -6 45 -7 0 -4 133 2 148 5 9 5 17 1 17 -4 0 -8 11 -8 25 0 14 2 25 6 25 3
0 5 10 6 23 0 12 3 38 7 57 39 201 153 370 321 478 75 49 208 106 219 95 3 -4
6 -1 6 5 0 6 9 9 20 7 11 -2 22 1 25 6 4 5 10 7 14 5 4 -3 21 -1 37 3 28 9
239 7 299 -2z"/>
</g>
</svg>
